<svg xmlns="http://www.w3.org/2000/svg" xmlns:xlink="http://www.w3.org/1999/xlink" width="100" height="40.44" viewBox="0 0 100 40.44"><defs><clipPath id="clip-path"><rect id="Rectangle_33" data-name="Rectangle 33" width="100" height="40.44" transform="translate(0 0.001)" fill="none"></rect></clipPath></defs><g id="Group_41" data-name="Group 41" transform="translate(0 -0.001)"><g id="Group_40" data-name="Group 40" clip-path="url(#clip-path)"><path id="Path_51" data-name="Path 51" d="M87.34,28.939a2.154,2.154,0,0,1-2.2-2.1c0-.034,0-.069,0-.1A2.185,2.185,0,0,1,87.3,24.526h.04a2.22,2.22,0,0,1,2.207,2.207,2.187,2.187,0,0,1-2.167,2.206h-.04m-10.45-3.1a3.065,3.065,0,0,0,3.15-2.975v-.019a3.183,3.183,0,1,0-3.367,2.988c.072,0,.145.006.217.006m-37.08,0a3.077,3.077,0,0,0,3.2-2.946c0-.016,0-.032,0-.048A3.117,3.117,0,0,0,39.826,19.8h-.017a3.15,3.15,0,0,0-3.2,3.046,3.11,3.11,0,0,0,3.2,2.994m8.56-8.876h3.572v1.522a4.567,4.567,0,0,1,3.467-1.522v3.414h-.053c-1.366,0-3.414,1-3.414,2.836v5.514H48.369Zm28.2,12.08A6.2,6.2,0,1,1,80.093,17.75v-.786h3.519V28.728H80.093V27.94a6.222,6.222,0,0,1-3.519,1.1M57.036,16.964h3.519v1.312a4.386,4.386,0,0,1,3.624-1.628,4.686,4.686,0,0,1,4.989,4.621v7.459H65.65v-6.2c0-1.732-.894-2.626-2.418-2.626a2.466,2.466,0,0,0-2.678,2.626v6.2H57.035ZM39.547,29.044A6.2,6.2,0,1,1,43.013,17.75v-.786h3.521V28.728H43.013V27.94a6.174,6.174,0,0,1-3.466,1.1M28.2,11.765H31.88V28.729H28.2ZM16.438,20.746,17.91,19.59a9.61,9.61,0,0,0,3.94-7.825h3.833a13.337,13.337,0,0,1-3.992,9.61L27.1,28.728H22.27Zm-4.306-8.981h3.833V28.729H12.132Zm76.1,28.675A11.732,11.732,0,0,0,100,28.741V11.765A11.745,11.745,0,0,0,88.275,0H11.764A11.744,11.744,0,0,0,0,11.724a.281.281,0,0,0,0,.041V28.728A11.733,11.733,0,0,0,11.755,40.44H88.232Z" fill="#f19eb8"></path><path id="Path_52" data-name="Path 52" d="M87.343,28.938a2.154,2.154,0,0,1-2.205-2.1c0-.035,0-.07,0-.1A2.184,2.184,0,0,1,87.3,24.526h.042a2.22,2.22,0,0,1,2.206,2.207,2.187,2.187,0,0,1-2.167,2.2h-.039m-10.45-3.1a3.061,3.061,0,0,0,3.149-2.973v-.02a3.183,3.183,0,1,0-3.367,2.987c.072,0,.145.007.217.006m-37.078,0a3.078,3.078,0,0,0,3.2-2.947l0-.046A3.12,3.12,0,0,0,39.831,19.8h-.015a3.15,3.15,0,0,0-3.2,3.047,3.108,3.108,0,0,0,3.2,2.993m8.556-8.874h3.572v1.522a4.566,4.566,0,0,1,3.465-1.522v3.414h-.053c-1.364,0-3.412,1-3.412,2.836v5.514H48.372Zm28.2,12.079a6.2,6.2,0,1,1,3.519-11.291v-.788h3.519V28.728H80.094V27.94a6.2,6.2,0,0,1-3.519,1.1M57.039,16.964h3.519v1.312a4.379,4.379,0,0,1,3.624-1.628,4.686,4.686,0,0,1,4.989,4.621v7.459H65.652V22.533c0-1.733-.893-2.627-2.415-2.627a2.466,2.466,0,0,0-2.679,2.627v6.2H57.039ZM39.549,29.043a6.2,6.2,0,1,1,3.466-11.291v-.788h3.518V28.728H43.015V27.94a6.176,6.176,0,0,1-3.466,1.1M28.2,11.765h3.677V28.729H28.2ZM16.439,20.746l1.471-1.157a9.6,9.6,0,0,0,3.94-7.824h3.833a13.336,13.336,0,0,1-3.991,9.61L27.1,28.728H22.27Zm-4.306-8.981h3.835V28.729H12.133Z" fill="#040504"></path></g></g></svg>